<svg id="Capa_1" enable-background="new 0 0 510.5 510.5" height="512" viewBox="0 0 510.5 510.5" width="512" xmlns="http://www.w3.org/2000/svg">
	<g>
		<g>
			<path d="m503 107.338v225.68l-24.598 7.498h-427.404l-43.498-7.498v-225.68c0-16.56 13.43-30 30-30h435.5c16.57 0 30 13.44 30 30z" fill="#8ac9fe" />
			<path d="m67.5 77.338c-16.57 0-30 13.44-30 30v225.68l-6.757 5.782h-17.021l-6.222-5.782v-225.68c0-16.56 13.43-30 30-30z" fill="#60b7ff" />
			<path d="m207.003 348.015h96.5v134h-96.5z" fill="#e8edf2" />
			<path d="m207 348.018h30v134h-30z" fill="#d9e7ec" />
			<path d="m367.753 503.015h-225c-9.941 0-18-8.059-18-18v-12c0-9.941 8.059-18 18-18h225c9.941 0 18 8.059 18 18v12c0 9.942-8.058 18-18 18z" fill="#f5f8f9" />
			<path d="m503 333.018v35c0 16.57-13.43 30-30 30h-435.5c-16.57 0-30-13.43-30-30v-35z" fill="#f5f8f9" />
			<path d="m172.75 503.018h-30c-9.94 0-18-8.06-18-18v-12c0-9.94 8.06-18 18-18h30c-9.94 0-18 8.06-18 18v12c0 9.94 8.06 18 18 18z" fill="#e8edf2" />
			<path d="m67.5 398.018h-30c-16.57 0-30-13.43-30-30v-35h30v35c0 16.57 13.43 30 30 30z" fill="#e8edf2" />
			<path d="m245.213 13.142-152.132 251.669c-4.725 7.816.903 17.795 10.037 17.795h304.265c9.133 0 14.761-9.979 10.037-17.795l-152.133-251.669c-4.563-7.547-15.511-7.547-20.074 0z" fill="#ffe177" />
			<path d="m255.25 197.35c-7.732 0-14-6.268-14-14v-95.311c0-7.732 6.268-14 14-14 7.732 0 14 6.268 14 14v95.311c0 7.732-6.268 14-14 14z" fill="#fe646f" />
			<ellipse cx="255.25" cy="239.614" fill="#fe646f" rx="13.5" ry="13.425" />
			<path d="m133.12 282.608h-30c-9.14 0-14.76-9.98-10.04-17.8l152.13-251.67c4.57-7.54 15.51-7.54 20.08 0l4.96 8.21-147.17 243.46c-4.72 7.82.9 17.8 10.04 17.8z" fill="#ffd15b" />
		</g>
		<g>
			<path d="m503 301.38c-4.142 0-7.5 3.357-7.5 7.5v16.567h-480.5v-218.177c0-12.406 10.093-22.5 22.5-22.5h36.37c4.142 0 7.5-3.357 7.5-7.5s-3.358-7.5-7.5-7.5h-36.37c-20.678 0-37.5 16.822-37.5 37.5v260.68c0 20.678 16.822 37.5 37.5 37.5h162v41.997h-56.75c-14.061 0-25.5 11.439-25.5 25.5v12c0 14.061 11.439 25.5 25.5 25.5h225c14.061 0 25.5-11.439 25.5-25.5v-12c0-14.061-11.439-25.5-25.5-25.5h-56.75v-41.997h162c20.678 0 37.5-16.822 37.5-37.5v-59.07c0-4.143-3.358-7.5-7.5-7.5zm-124.75 171.567v12c0 5.79-4.71 10.5-10.5 10.5h-225c-5.79 0-10.5-4.71-10.5-10.5v-12c0-5.79 4.71-10.5 10.5-10.5h225c5.79 0 10.5 4.71 10.5 10.5zm-82.25-25.5h-81.5v-41.997h81.5zm177-56.997h-435.5c-12.407 0-22.5-10.094-22.5-22.5v-27.503h480.5v27.503c0 12.406-10.093 22.5-22.5 22.5z" />
			<path d="m473 69.77h-164.762l-36.533-60.436c-3.513-5.812-9.665-9.281-16.455-9.281s-12.942 3.47-16.455 9.281l-36.533 60.436h-93.392c-4.142 0-7.5 3.357-7.5 7.5s3.358 7.5 7.5 7.5h84.324l-106.531 176.233c-3.638 6.018-3.747 13.268-.292 19.393s9.715 9.782 16.748 9.782h304.265c7.032 0 13.293-3.657 16.748-9.782s3.345-13.375-.292-19.393l-106.535-176.233h155.695c12.407 0 22.5 10.094 22.5 22.5v166.61c0 4.143 3.358 7.5 7.5 7.5s7.5-3.357 7.5-7.5v-166.61c0-20.678-16.822-37.5-37.5-37.5zm-61.935 203.256c-.365.647-1.454 2.151-3.683 2.151h-304.264c-2.229 0-3.317-1.504-3.683-2.151-.365-.646-1.088-2.356.064-4.264l152.133-251.668c1.113-1.842 2.901-2.041 3.618-2.041s2.505.199 3.618 2.041l152.132 251.669c1.153 1.907.43 3.617.065 4.263z" />
			<path d="m233.75 87.61v96c0 11.855 9.645 21.5 21.5 21.5s21.5-9.645 21.5-21.5v-96c0-11.855-9.645-21.5-21.5-21.5s-21.5 9.645-21.5 21.5zm28 0v96c0 3.584-2.916 6.5-6.5 6.5s-6.5-2.916-6.5-6.5v-96c0-3.584 2.916-6.5 6.5-6.5s6.5 2.916 6.5 6.5z" />
			<path d="m255.25 219.11c-11.58 0-21 9.421-21 21s9.42 21 21 21 21-9.421 21-21-9.42-21-21-21zm0 27c-3.309 0-6-2.691-6-6s2.691-6 6-6 6 2.691 6 6-2.691 6-6 6z" />
		</g>
	</g>
</svg>
